<svg xmlns="http://www.w3.org/2000/svg" xmlns:xlink="http://www.w3.org/1999/xlink" width="8" height="16" viewBox="0 0 8 16"><defs><path id="xp3ka" d="M938.699 1506.003l-1.92-.003c-2.155 0-3.548 1.546-3.548 3.938v1.815h-1.93c-.166 0-.301.146-.301.326v2.63c0 .181.135.327.302.327h1.929v6.638c0 .18.135.326.302.326h2.517c.167 0 .302-.146.302-.326v-6.638h2.255c.167 0 .302-.146.302-.326l.001-2.63a.34.34 0 0 0-.088-.231.29.29 0 0 0-.214-.096h-2.256v-1.539c0-.74.163-1.115 1.054-1.115h1.292c.167 0 .302-.147.302-.327v-2.442c0-.18-.135-.326-.301-.327"/></defs><g><g transform="translate(-931 -1506)"><use fill="#fff" xlink:href="#xp3ka"/></g></g></svg>