<svg xmlns="http://www.w3.org/2000/svg" width="240" height="240" viewBox="0 0 240 240">
    <g fill="none" fill-rule="evenodd">
        <path fill="#FFF" d="M-894-561H506v7143H-894z"/>
        <path stroke="#FFF" stroke-width="2" d="M101 101v38h38v-38h-38z"/>
        <path fill="#FFF" d="M122.699 112.003l-1.92-.003c-2.155 0-3.548 1.546-3.548 3.938v1.815h-1.93c-.166 0-.301.146-.301.326v2.63c0 .181.135.327.302.327h1.929v6.638c0 .18.135.326.302.326h2.517c.167 0 .302-.146.302-.326v-6.638h2.255c.167 0 .302-.146.302-.326l.001-2.63a.34.34 0 0 0-.088-.231.29.29 0 0 0-.214-.096h-2.256v-1.539c0-.74.163-1.115 1.054-1.115h1.292c.167 0 .302-.147.302-.327v-2.442c0-.18-.135-.326-.301-.327"/>
    </g>
</svg>
