<svg xmlns="http://www.w3.org/2000/svg" width="240" height="240" viewBox="0 0 240 240">
    <g fill="none" fill-rule="evenodd">
        <path fill="#FFF" d="M-973-561H427v7143H-973z"/>
        <path stroke="#FFF" stroke-width="2" d="M101 101h38v38h-38z"/>
        <g fill="#FFF" fill-rule="nonzero" transform="matrix(1 0 0 -1 110 130)">
            <path d="M13.75 0h-7.5A6.25 6.25 0 0 0 0 6.25v7.5A6.25 6.25 0 0 0 6.25 20h7.5A6.25 6.25 0 0 0 20 13.75v-7.5A6.25 6.25 0 0 0 13.75 0zm4.375 13.75a4.38 4.38 0 0 1-4.375 4.375h-7.5a4.38 4.38 0 0 1-4.375-4.375v-7.5A4.38 4.38 0 0 1 6.25 1.875h7.5a4.38 4.38 0 0 1 4.375 4.375v7.5z"/>
            <path d="M10 5a5 5 0 1 0 0 10 5 5 0 0 0 0-10zm0 8.125A3.13 3.13 0 0 1 6.875 10 3.129 3.129 0 0 1 10 6.875 3.129 3.129 0 0 1 13.125 10 3.13 3.13 0 0 1 10 13.125z"/>
            <circle cx="15.5" cy="14.5" r="1"/>
        </g>
    </g>
</svg>
