<svg xmlns="http://www.w3.org/2000/svg" xmlns:xlink="http://www.w3.org/1999/xlink" width="20" height="20" viewBox="0 0 20 20"><defs><path id="ayz2a" d="M1023.125 1517.75a4.38 4.38 0 0 1-4.375 4.375h-7.5a4.38 4.38 0 0 1-4.375-4.375v-7.5a4.38 4.38 0 0 1 4.375-4.375h7.5a4.38 4.38 0 0 1 4.375 4.375zm-4.375-13.75h-7.5a6.25 6.25 0 0 0-6.25 6.25v7.5a6.25 6.25 0 0 0 6.25 6.25h7.5a6.25 6.25 0 0 0 6.25-6.25v-7.5a6.25 6.25 0 0 0-6.25-6.25z"/></defs><g><g transform="translate(-1005 -1504)"><use fill="#fff" xlink:href="#ayz2a"/></g></g></svg>