<svg xmlns="http://www.w3.org/2000/svg" xmlns:xlink="http://www.w3.org/1999/xlink" width="280" height="37" viewBox="0 0 280 37">
    <defs>
        <path id="a" d="M0 .702h279.81V37H0z"/>
    </defs>
    <g fill="none" fill-rule="evenodd">
        <path fill="#FFF" d="M230.187 4.834h-1.13V3.403h1.183c.495 0 .694.222.694.703 0 .48-.25.728-.747.728m.09-2.554h-1.22V1.165h2.559V0H228v6h2.225c1.11 0 1.775-.669 1.775-1.878 0-1.217-.592-1.842-1.723-1.842M243.937 4H234v.96h15V4h-4.968zM252.211 3.42l.785-2.177.782 2.176h-1.567zM252.23 0L250 6h1.284l.51-1.415h2.41L254.706 6H256l-2.23-6h-1.54zM267.938 4H258v.96h15V4h-4.967zM276.121 2.897h-1.068V1.166h1.068c.546 0 .81.333.81.865 0 .523-.264.866-.81.866M276.166 0H274v6h1.053V4.063h1.113c1.105 0 1.834-.789 1.834-2.049C278 .754 277.271 0 276.166 0"/>
        <mask id="b" fill="#fff">
            <use xlink:href="#a"/>
        </mask>
        <path fill="#FFF" d="M243.025 31.647h-.078a5.82 5.82 0 0 1-.038-1.466c.135-1.104.533-2.363 1.126-3.483.6-1.131 1.383-2.23 2.314-3.236.457-.51.961-.99 1.476-1.45.258-.23.524-.453.792-.664l.13-.101h9.577l-15.299 10.4zm-94.33-4.949c.6-1.131 1.383-2.23 2.315-3.236.458-.51.961-.99 1.477-1.45.257-.23.523-.453.79-.664.04-.032.088-.067.132-.101h8.5l-1.122 2.312-12.196 3.361c.036-.074.066-.15.104-.222zm-77.202-1.24c-1.7 3.258-4.422 5.378-5.598 6.19H57.28c-.006-.86.222-2.159 1.148-3.933 1.67-3.203 4.843-5.578 6.157-6.468h8.183c-.144 1.197-.491 2.707-1.275 4.211zm188.316 6.19l6.911-15.38h-20.538a22.77 22.77 0 0 0-2.053 1.626 24.542 24.542 0 0 0-1.892 1.855 20.94 20.94 0 0 0-3.141 4.418c-.863 1.66-1.468 3.429-1.714 5.437a11.776 11.776 0 0 0-.025 2.043h-17.82l6.52-15.38h-5.604l-.011.01-14.723 11.112 4.055-11.121h-4.59l-15.42 11.143 4.78-11.143h-6.04l-6.6 15.38h-32.579l15.424-3.533 5.734-11.847h-19.64a22.053 22.053 0 0 0-2.053 1.626 24.32 24.32 0 0 0-1.89 1.855 20.99 20.99 0 0 0-3.144 4.418c-.86 1.66-1.467 3.429-1.713 5.437-.007.061-.008.123-.013.183l-7.123 1.86-13.127.03 7.02-15.41h-5.935l-17.518 12.628 2.04-12.627h-5.086l-17.124 15.38H73.991a21.034 21.034 0 0 0 2.437-3.654c2.528-4.848 1.935-9.658 1.909-9.86l-.245-1.866H62.1c-1.153.719-6.028 3.96-8.61 8.91-1.353 2.598-1.764 4.765-1.755 6.47H37.051L25.506 18.101 58.3.702H46.35L21.516 13.828l8.1-13.126H22.4L0 37h7.217l10.752-17.425 14.083 16.606.695.819H87.5l.025-.021 13.229-12.194L99.09 37h3.467l16.201-11.438L113.425 37h22.215l7.4-1.935L144.37 37h41.588l.155-.116 15.355-11.913L196.952 37h4.193l14.907-11.037L211.236 37h33.796l10.24-8.15-3.954 8.15h26.197l2.295-5.353h-20z" mask="url(#b)"/>
    </g>
</svg>
