<svg xmlns="http://www.w3.org/2000/svg" xmlns:xlink="http://www.w3.org/1999/xlink" width="379" height="50" viewBox="0 0 379 50"><defs><path id="slivb" d="M416.696 3816.082h-1.65v-1.507h3.463V3813h-4.894v8.108h3.011c1.501 0 2.403-.904 2.403-2.538 0-1.644-.802-2.488-2.333-2.488m-.13 3.45h-1.52v-1.934h1.592c.666 0 .935.301.935.95 0 .648-.339.984-1.006.984"/><path id="slivc" d="M435.186 3818.405h-13.45v1.298H442.039v-1.298h-6.724z"/><path id="slivd" d="M446.41 3813l-3.017 8.108h1.737l.692-1.912h3.261l.68 1.912h1.751l-3.02-8.108zm-.024 4.62l1.062-2.94 1.058 2.94z"/><path id="slive" d="M467.673 3818.405h-13.452v1.298h20.304v-1.298h-6.723z"/><path id="slivf" d="M478.81 3813h-2.931v8.108h1.425v-2.618h1.506c1.497 0 2.483-1.066 2.483-2.768 0-1.702-.986-2.722-2.483-2.722m-.06 3.915h-1.446v-2.34h1.446c.739 0 1.097.451 1.097 1.17 0 .706-.358 1.17-1.097 1.17"/><path id="sliva" d="M105 3813.948h378.742V3863H105z"/><path id="slivh" d="M483.744 3855.764l-3.107 7.234h-35.46l5.352-11.014-13.86 11.014h-45.745l6.518-14.915-20.177 14.915h-5.676l6.113-16.255-20.785 16.098-.209.157h-56.294l-1.798-2.615-10.017 2.615h-30.07l7.22-15.457-21.929 15.457h-4.693l2.25-16.507-17.906 16.478-.034.029h-74.111l-.94-1.107-19.063-22.44-14.555 23.547H105l30.32-49.052h9.766l-10.962 17.738 33.616-17.738h16.173l-44.388 23.513 15.626 18.305h19.877c-.012-2.303.543-5.231 2.375-8.741 3.495-6.69 10.093-11.07 11.654-12.042h21.646l.332 2.522c.035.273.837 6.773-2.584 13.325a28.421 28.421 0 0 1-3.299 4.936h15.141l23.18-20.783h6.884l-2.762 17.063 23.712-17.063h8.033l-9.501 20.823 17.767-.04 9.642-2.513c.007-.082.009-.165.017-.248.333-2.714 1.154-5.104 2.32-7.347a28.365 28.365 0 0 1 4.254-5.97 32.897 32.897 0 0 1 2.56-2.508 29.837 29.837 0 0 1 2.78-2.197h26.583L328 3850.99l-20.877 4.775 44.098-.002 8.933-20.783h8.177l-6.472 15.058 20.873-15.058h6.212l-5.489 15.028 19.929-15.016.015-.012h7.587l-8.827 20.783h24.121c-.07-.94-.055-1.865.034-2.761.333-2.714 1.152-5.104 2.32-7.347a28.298 28.298 0 0 1 4.252-5.97 33.196 33.196 0 0 1 2.56-2.508 30.807 30.807 0 0 1 2.78-2.197h27.8l-9.356 20.783zm-281.973-8.358c1.061-2.035 1.53-4.077 1.726-5.697H192.42c-1.78 1.205-6.074 4.418-8.335 8.75-1.253 2.4-1.56 4.158-1.552 5.319h11.66c1.592-1.098 5.276-3.966 7.577-8.372zm104.499 1.683c-.052.098-.093.2-.141.3l16.508-4.55 1.518-3.13H312.65c-.059.047-.124.094-.178.137-.362.286-.722.588-1.07.9a25.39 25.39 0 0 0-1.998 1.962 20.951 20.951 0 0 0-3.134 4.38zm148.39-7.38h-12.963l-.176.137c-.362.285-.722.587-1.072.9a25.67 25.67 0 0 0-1.998 1.96 20.987 20.987 0 0 0-3.132 4.377c-.803 1.515-1.341 3.218-1.525 4.711a7.868 7.868 0 0 0 .053 1.984h.106z"/><clipPath id="slivg"><use xlink:href="#sliva"/></clipPath></defs><g><g transform="translate(-105 -3813)"><g><g><use fill="#fff" xlink:href="#slivb"/></g><g><use fill="#fff" xlink:href="#slivc"/></g><g><use fill="#fff" xlink:href="#slivd"/></g><g><use fill="#fff" xlink:href="#slive"/></g><g><use fill="#fff" xlink:href="#slivf"/></g><g><g/><g clip-path="url(#slivg)"><use fill="#fff" xlink:href="#slivh"/></g></g></g></g></g></svg>