<svg xmlns="http://www.w3.org/2000/svg" xmlns:xlink="http://www.w3.org/1999/xlink" width="295" height="263" viewBox="0 0 295 263"><defs><path id="qwqya" d="M568.202 457.919c0-2.137 2.195-3.41 5.392-3.41 6.832 0 9.595 4.818 9.595 4.818l8.813-5.353s-3.625-9.507-19.395-9.507c-11.864 0-18.546 6.294-18.546 13.59 0 18.274 24.58 11.508 24.58 20.617 0 2.27-1.99 3.677-5.53 3.677-8.33 0-13.51-7.094-13.51-7.094l-7.6 6.694s4.897 10.164 21.11 10.164c13.985 0 19.24-7.285 19.24-13.852 0-17.664-24.15-12.444-24.15-20.344"/><path id="qwqyb" d="M648.05 461.668c0-11.445-8.038-16.806-20.758-16.806h-18.407v46.856h12.939v-13.786h7.244c10.094 0 18.983-5.024 18.983-16.264m-21.335 6.691h-4.892v-13.854h4.4c6.025 0 8.782 3.02 8.782 7.163 0 4.48-2.97 6.691-8.29 6.691"/><path id="qwqyc" d="M696.526 454.509v-9.642h-32.87v46.852h32.87v-9.64h-19.943v-8.838h14.676v-9.43h-14.676v-9.302z"/><path id="qwqyd" d="M746.41 482.08h-19.963v-8.838h14.709v-9.43h-14.71v-9.302h19.964v-9.643h-32.9v46.853h32.9z"/><path id="qwqye" d="M776.31 444.866h-12.933v46.883h32.894v-9.648H776.31z"/><path id="qwqyf" d="M823.394 444.476c-13 0-23.018 8.237-23.018 23.894 0 15.666 10.088 23.75 23.018 23.75 12.933 0 23.02-8.084 23.02-23.75 0-15.657-10.01-23.894-23.02-23.894m0 37.213c-5.393 0-9.59-3.547-9.59-13.319 0-9.769 4.253-13.117 9.59-13.117 5.33 0 9.592 3.348 9.592 13.117 0 9.772-4.185 13.32-9.592 13.32"/><path id="qwqyg" d="M642.178 521.988h3.848v.425c0 1.78-.914 3.24-3.38 3.24-2.242 0-4.353-1.548-4.353-5.487 0-3.909 1.862-5.579 4.282-5.579 3.31 0 3.413 3.17 3.413 3.17l2.772-.426c0-.63-.696-5.217-6.232-5.217-4.423 0-7.322 2.697-7.322 8.052 0 5.353 3.063 7.964 7.369 7.964 4.423 0 6.303-2.81 6.303-5.717v-2.542h-6.7z"/><path id="qwqyh" d="M671.754 521.152c1.383-.458 2.963-1.69 2.963-4.027 0-3.47-2.172-4.88-6.157-4.88h-5.78v15.745h3.007v-6.032h2.031c3.558 0 2.368 6.115 7.262 6.115.98 0 1.6-.125 1.6-.125v-2.114h-.674c-2.294 0-2.435-3.426-4.252-4.682m-3.573-1.325h-2.394v-5.294h2.637c2.096 0 3.3 1.038 3.3 2.677 0 1.706-1.522 2.617-3.543 2.617"/><path id="qwqyi" d="M696.003 512.106c-4.042 0-7.403 2.523-7.403 8.03 0 5.51 3.393 7.986 7.403 7.986 4.012 0 7.376-2.476 7.376-7.986 0-5.507-3.364-8.03-7.376-8.03m0 13.562c-2.298 0-4.294-1.487-4.294-5.545 0-4.106 2.025-5.54 4.294-5.54 2.26 0 4.296 1.434 4.296 5.54 0 4.058-2.01 5.545-4.296 5.545"/><path id="qwqyj" d="M726.907 521.718c0 2.474-1.031 3.917-3.361 3.917-2.345 0-3.4-1.443-3.4-3.917v-9.468h-2.974v9.247c-.03 5.01 2.857 6.631 6.374 6.631 3.502 0 6.348-1.62 6.348-6.63v-9.248h-2.987z"/><path id="qwqyk" d="M750.056 512.244H744.4v15.746h3.004v-5.29h3.03c3.397 0 6.023-1.614 6.023-5.145 0-3.58-2.438-5.31-6.4-5.31m-.162 8.16h-2.491v-5.872h2.4c2.447 0 3.596 1.242 3.596 3.022 0 1.864-1.19 2.85-3.505 2.85"/><path id="qwqyl" d="M724.363 410.733c4.296 0 7.787-3.277 7.787-7.323 0-18.59-16.058-33.71-35.79-33.71s-35.787 15.12-35.787 33.71c0 4.046 3.488 7.323 7.787 7.323 4.297 0 7.775-3.277 7.775-7.323 0-10.51 9.083-19.056 20.225-19.056 11.151 0 20.228 8.547 20.228 19.056 0 4.046 3.478 7.323 7.775 7.323"/><path id="qwqym" d="M632.504 379.263c-.486 7.105-3.065 13.885-7.464 19.61-2.52 3.282-1.72 7.859 1.761 10.239a8.05 8.05 0 0 0 4.54 1.385c2.414 0 4.8-1.054 6.321-3.033 6.108-7.978 9.707-17.394 10.375-27.265 1.96-28.802-21.318-53.748-51.894-55.603-4.232-.296-7.99 2.802-8.276 6.843-.273 4.047 2.983 7.528 7.268 7.784 22.024 1.336 38.788 19.293 37.37 40.04"/><path id="qwqyn" d="M765.25 391.66c0-37.486-32.385-67.994-72.19-67.994-2.704 0-5.408.177-8.101.458-1.647-4.325-4.217-8.29-7.721-11.538-11.839-10.967-26.329-10.83-40.344-10.697-2.03.011-4.079.033-6.15.017-3.637-.006-7.106.1-10.391.21-12.996.441-18.976.38-23.94-5.717-3.636-4.475-2.628-8.185-1.714-9.985 1.524-2.995 4.756-4.905 8.474-4.993 1.471-.047 2.535.336 3.132.715-2.065 2.401-2.373 5.88-.483 8.612 2.344 3.39 7.153 4.359 10.757 2.162 5.08-3.111 7.167-8.762 5.306-14.415-1.936-5.891-8.374-11.735-18.475-11.735-.208 0-.416 0-.62.006-9.597.226-18.075 5.327-22.124 13.316-4.12 8.113-2.854 17.548 3.399 25.227 10.054 12.373 23.68 11.906 36.865 11.453 3.05-.102 6.253-.218 9.7-.193 2.165.017 4.313-.01 6.422-.025 13.714-.146 22.4.116 29.273 6.498 4.14 3.832 5.934 9.662 4.809 15.583-1.081 5.69-4.644 10.313-9.535 12.386-3.918 1.659-5.67 5.998-3.906 9.694 1.286 2.711 4.123 4.323 7.103 4.323a8.21 8.21 0 0 0 3.18-.64c9.581-4.069 16.49-12.723 18.483-23.166.161-.853.229-1.7.325-2.547 2.08-.216 4.173-.351 6.277-.351 31.224 0 56.63 23.938 56.63 53.337 0 3.461-.35 6.917-1.044 10.268-.811 3.978 1.937 7.82 6.166 8.588.489.091.99.138 1.488.138 3.645 0 6.916-2.432 7.63-5.94a64.45 64.45 0 0 0 1.32-13.054"/><path id="qwqyo" d="M649.106 323.86c-5.08 0-9.188 3.876-9.188 8.671 0 4.79 4.109 8.676 9.188 8.676 5.083 0 9.203-3.886 9.203-8.676 0-4.795-4.12-8.67-9.203-8.67"/></defs><g><g transform="translate(-552 -266)"><g><g><g><use fill="#fff" xlink:href="#qwqya"/></g><g><use fill="#fff" xlink:href="#qwqyb"/></g><g><use fill="#fff" xlink:href="#qwqyc"/></g><g><use fill="#fff" xlink:href="#qwqyd"/></g><g><use fill="#fff" xlink:href="#qwqye"/></g><g><use fill="#fff" xlink:href="#qwqyf"/></g><g><use fill="#fff" xlink:href="#qwqyg"/></g><g><use fill="#fff" xlink:href="#qwqyh"/></g><g><use fill="#fff" xlink:href="#qwqyi"/></g><g><use fill="#fff" xlink:href="#qwqyj"/></g><g><use fill="#fff" xlink:href="#qwqyk"/></g><g><use fill="#fff" xlink:href="#qwqyl"/></g><g><use fill="#fff" xlink:href="#qwqym"/></g><g><use fill="#fff" xlink:href="#qwqyn"/></g><g><use fill="#fff" xlink:href="#qwqyo"/></g></g></g></g></g></svg>