<svg xmlns="http://www.w3.org/2000/svg" width="438" height="345" viewBox="0 0 438 345">
    <g fill="#FFF" fill-rule="evenodd">
        <path d="M-816-962H584v7143H-816z"/>
        <path d="M324.518 100l-1.738 2.709c4.582 2.709.632 16.093 11.692 19.599l1.264-2.55c-5.056-4.143-.79-15.296-11.218-19.758M327.204 126.929V155.29c0 8.127 3.476 13.066 8.532 14.978l1.264-2.55c-3.16-3.345-2.686-8.126-2.686-11.312v-29.478h-7.11z"/>
        <path fill-rule="nonzero" d="M181.212 126.77c-4.108 0-7.9 1.274-10.586 3.983-2.054-2.39-4.582-3.665-6.478-3.984l-1.738 2.709c4.424 2.39 4.424 7.489 4.424 10.835v35.533c0 8.127 3.476 13.066 8.532 14.978l1.264-2.55c-3.16-3.345-2.686-8.126-2.686-11.312v-8.127c2.054 1.116 4.582 1.594 7.11 1.594 7.742 0 14.378-4.621 14.378-14.5v-14.341c.158-10.198-6.478-14.819-14.22-14.819zm7.11 30.115c0 3.346-.316 10.197-7.11 10.197-6.794 0-7.11-6.851-7.11-10.197v-16.572c0-3.346.316-10.198 7.11-10.198 6.794 0 7.11 6.852 7.11 10.198v16.572z"/>
        <path d="M247.572 126.77c-3.318 0-6.636 1.115-8.848 3.664-1.896-2.23-4.424-3.187-6.162-3.665l-1.738 2.709c4.424 2.39 4.424 7.489 4.424 10.835v29.797h7.11v-33.621c0-3.665 1.896-6.374 4.74-6.374 4.74 0 5.056 4.303 3.318 7.011l2.844 1.275s3.95-1.912 3.95-5.417c.316-3.984-5.056-6.215-9.638-6.215"/>
        <path fill-rule="nonzero" d="M215.024 155.929c7.742 0 14.22-4.621 14.378-14.5 0-9.88-6.636-14.5-14.378-14.5h-.79c-7.426.318-13.43 4.94-13.588 14.5v14.34c0 10.039 6.952 14.5 14.694 14.5 6.004 0 11.218-2.55 11.218-7.01 0-3.188-3.16-4.781-3.16-4.781l-2.844 1.275c1.738 3.027-.474 7.01-5.846 7.01-6.794 0-7.11-6.85-7.11-10.197v-2.55c2.37 1.275 4.74 1.913 7.426 1.913zm-7.268-15.616c0-3.346.316-10.198 7.11-10.198 6.794 0 7.11 7.808 7.11 11.154s-.316 11.154-7.11 11.154c-6.794 0-7.11-6.852-7.11-10.198v-1.912zM286.44 156.885v-15.456c0-10.039-6.794-14.5-14.536-14.5-6.004 0-11.534 2.549-11.534 7.01 0 3.187 3.16 4.78 3.16 4.78l2.844-1.274c-1.738-3.027.474-7.01 5.846-7.01 6.794 0 7.11 6.85 7.11 10.197v2.55c-2.054-1.116-4.582-1.594-7.11-1.594-7.742 0-14.22 4.62-14.378 14.5 0 9.879 6.636 14.5 14.378 14.5 4.108 0 7.9-1.275 10.586-3.984 2.054 2.39 4.582 3.665 6.478 3.984l1.738-2.709c-4.582-2.55-4.582-7.808-4.582-10.994zm-7.11 0c0 3.346-.316 10.197-7.11 10.197-6.794 0-7.11-7.807-7.11-11.153 0-3.347.316-11.154 7.11-11.154 6.478 0 7.11 6.055 7.11 9.56v2.55zM158.618 156.885v-15.456c0-10.039-6.794-14.5-14.536-14.5-6.004 0-11.534 2.549-11.534 7.01 0 3.187 3.16 4.78 3.16 4.78l2.844-1.274c-1.738-3.027.474-7.01 5.846-7.01 6.794 0 7.11 6.85 7.11 10.197v2.55c-2.054-1.116-4.582-1.594-7.11-1.594-7.742 0-14.22 4.62-14.378 14.5 0 9.879 6.636 14.5 14.378 14.5 4.108 0 7.9-1.275 10.586-3.984 2.054 2.39 4.582 3.665 6.478 3.984l1.738-2.709c-4.582-2.55-4.582-7.808-4.582-10.994zm-7.11 0c0 3.346-.316 10.197-7.11 10.197-6.794 0-7.11-7.807-7.11-11.153 0-3.347.316-11.154 7.11-11.154 6.478 0 7.11 6.055 7.11 9.56v2.55z"/>
        <path d="M122.12 151.148c-.316-.318-10.27-10.835-10.744-11.153-1.422-1.594-2.37-2.869-2.37-5.1 0-1.911 1.264-4.62 5.372-4.62 4.74 0 5.056 4.302 3.318 7.01l2.844 1.275s3.95-1.912 3.95-5.417c0-4.462-5.372-6.374-10.27-6.374-6.794 0-12.482 3.665-12.482 9.56 0 3.825 3.16 6.693 4.582 8.286.158.16 9.322 9.72 9.638 9.88 1.738 1.912 3.476 3.346 3.476 6.692 0 3.187-2.528 5.736-6.004 5.736-5.846 0-9.322-5.258-6.162-10.676l-2.844-1.274s-4.424 1.752-4.424 7.01c0 5.577 6.636 8.446 13.43 8.446 6.952 0 13.272-4.303 13.272-10.836 0-3.824-2.37-6.214-4.582-8.445M316.144 126.929l-9.164 33.302s-5.53-21.033-5.846-21.67c-1.896-6.534-5.688-10.198-11.85-11.632l-1.738 2.708c4.108 2.231 5.372 5.737 6.952 10.676.158.638 5.846 18.802 6.32 20.555 2.528 8.286 6.004 9.72 9.164 9.72 1.264-3.824 13.588-43.34 13.588-43.34h-7.426v-.32z"/>
        <g>
            <path fill-rule="nonzero" d="M260.212 228.907c7.742 0 14.22-4.621 14.378-14.5 0-9.88-6.636-14.5-14.378-14.5h-.79c-7.426.318-13.43 4.94-13.588 14.5v14.34c0 10.039 6.952 14.5 14.694 14.5 6.004 0 11.218-2.55 11.218-7.01 0-3.188-3.16-4.781-3.16-4.781l-2.844 1.275c1.738 3.027-.474 7.01-5.846 7.01-6.794 0-7.11-6.85-7.11-10.197v-2.55c2.37 1.435 4.898 1.913 7.426 1.913zm-7.11-15.456c0-3.347.316-10.198 7.11-10.198 6.794 0 7.11 7.807 7.11 11.154 0 3.346-.316 11.153-7.11 11.153-6.794 0-7.11-6.851-7.11-10.197v-1.912zM219.922 229.863v-15.456c0-10.039-6.794-14.5-14.536-14.5-6.004 0-11.534 2.549-11.534 7.01 0 3.187 3.16 4.78 3.16 4.78l2.844-1.274c-1.738-3.027.474-7.01 5.846-7.01 6.794 0 7.11 6.85 7.11 10.197v2.55c-2.054-1.116-4.582-1.594-7.11-1.594-7.742 0-14.22 4.62-14.378 14.5 0 9.88 6.636 14.5 14.378 14.5 4.108 0 7.9-1.275 10.586-3.984 2.054 2.39 4.582 3.665 6.478 3.984l1.738-2.709c-4.582-2.39-4.582-7.648-4.582-10.994zm-7.11 0c0 3.346-.316 10.197-7.11 10.197-6.794 0-7.11-7.807-7.11-11.153 0-3.347.316-11.154 7.11-11.154 6.478 0 7.11 6.055 7.11 9.56v2.55z"/>
            <path d="M185.478 231.615l-2.844 1.275c1.738 3.028-.474 7.011-5.846 7.011-6.794 0-7.11-6.852-7.11-10.198V213.132c0-4.621.79-10.198 6.478-10.198 5.372 0 7.268 4.143 5.372 7.011l2.844 1.275s3.16-1.594 3.16-4.78c0-4.462-4.898-7.011-10.902-7.011-7.742 0-14.22 4.302-14.22 14.5v14.34c0 10.039 6.952 14.5 14.694 14.5 6.004 0 11.218-2.55 11.218-7.01.158-2.55-2.844-4.144-2.844-4.144M241.094 180.786c-7.742 0-11.692 4.461-11.692 13.066v6.055h-5.372v3.346h1.264c2.844 0 3.95.796 4.108 3.346v36.648h7.11v-39.994h9.006v-3.346h-9.006v-10.039c0-3.824 2.054-5.736 4.108-5.736 4.582 0 4.582 4.461 2.686 7.01l2.844 1.276s3.95-1.913 3.95-5.418c.158-3.984-4.424-6.214-9.006-6.214"/>
        </g>
    </g>
</svg>
