<svg xmlns="http://www.w3.org/2000/svg" width="413" height="347" viewBox="0 0 413 347">
    <g fill="#FFF" fill-rule="evenodd">
        <path d="M-3-1862h1400v7143H-3z"/>
        <path fill-rule="nonzero" d="M208.867 186.78c-4.734 0-8.52-1.805-11.36-5.25-2.84-3.609-4.418-8.366-4.418-14.436 0-6.233 1.42-11.155 4.418-14.764 2.84-3.609 6.626-5.25 11.36-5.25 4.733 0 8.52 1.805 11.36 5.25 2.84 3.61 4.417 8.53 4.417 14.764 0 6.07-1.42 10.827-4.417 14.436-2.84 3.61-6.627 5.25-11.36 5.25zm94.35-79.89c-3.944-3.117-6.941-6.562-8.993-4.921-1.893 1.476-1.262 4.593.158 7.71 1.736 3.937-.473 7.054-3.944 5.905-.316-.164-.631-.164-.947-.164-11.518-4.429-25.087-.82-33.133 9.843-4.734 6.234-11.045 11.319-18.46 14.928-1.736.82-4.418 3.773-2.21 7.546 0 .164.159.164.159.328 3.155 5.25 4.733 11.647 4.733 19.03 0 10.17-2.84 18.208-8.678 24.442-5.838 6.234-13.569 9.35-23.035 9.35-9.467 0-17.198-3.116-23.036-9.35-5.838-6.07-8.678-14.272-8.678-24.443 0-6.233 1.105-11.81 3.471-16.568 0-.164.158-.164.158-.328 1.736-3.117 2.367-7.546-2.84-10.171-7.415-3.773-13.726-8.858-18.46-15.256-9.309-12.468-26.033-15.42-38.655-7.218-3.156 1.148-4.576-1.477-3.156-4.757 1.42-3.445 2.998-5.742 1.42-7.71-1.735-2.297-5.995 1.64-10.255 5.085-4.103 3.445-8.205 6.233-7.1 8.694.63 1.313 3.47 1.313 6.784.82 3.787-.656 6.153 1.969 4.733 4.922-8.046 10.827-8.52 26.247 0 37.566 6.47 8.694 14.516 16.569 23.51 23.13l.788.164c1.578.657 2.998 1.149 4.26 1.313 1.578.328 3.156.492 4.576.492 4.89 0 7.257-2.297 7.257-6.89 0-2.297-.946-4.265-2.997-5.578-1.42-.984-4.26-2.132-8.205-3.28-6.469-1.969-11.044-4.102-13.884-6.89-2.998-2.79-4.418-6.562-4.418-11.483 0-5.906 2.051-10.827 6.311-14.6 4.26-3.773 9.94-5.742 17.04-5.742 5.207 0 9.467.984 12.78 2.953 3.156 1.804 4.891 4.1 4.891 6.726 0 4.1-2.209 6.233-6.626 6.233-.79 0-1.736-.164-2.683-.328-.63 0-1.577-.328-2.84-.82l-2.84-.82c-1.104-.328-2.209-.328-2.997-.328-4.734 0-7.258 1.968-7.258 5.741 0 1.969 1.104 3.61 3.155 4.594.79.492 2.051.984 3.787 1.476.316 0 .631.164 1.104.328.158 0 .316 0 .632.164.315 0 .473 0 .473.164l2.682.82c11.833 3.937 17.829 10.5 17.829 19.522 0 6.233-2.209 11.483-6.784 15.584l-.474.492-.158.164-.157.164c-1.263 1.149-1.736 2.953.63 3.937h.159c14.2 5.578 29.662 8.53 45.124 8.53h.473a126.56 126.56 0 0 0 42.916-7.545s.158-.164.315-.164c2.21-.82 1.894-2.625.79-3.61-2.84-1.968-4.26-3.937-4.26-6.397 0-4.43 2.366-6.562 7.257-6.562.789 0 1.893.164 3.156.492l3.786 1.148c1.578.657 2.998 1.149 4.26 1.313 1.578.328 3.156.492 4.576.492 4.891 0 7.258-2.297 7.258-6.89 0-2.297-.947-4.265-2.998-5.578-1.42-.984-4.26-2.132-8.205-3.28-6.468-1.969-11.044-4.102-13.884-6.89-2.998-2.79-4.418-6.562-4.418-11.483 0-5.906 2.051-10.827 6.311-14.6 4.418-3.938 10.098-5.906 17.04-5.906 5.207 0 9.467.984 12.78 2.953 3.156 1.804 4.891 4.1 4.891 6.726 0 4.1-2.208 6.233-6.626 6.233-.79 0-1.736-.164-2.682-.328-.632 0-1.578-.328-2.84-.82l-2.84-.82c-1.105-.328-2.21-.328-2.998-.328-4.734 0-7.258 1.968-7.258 5.741 0 1.969 1.104 3.61 3.156 4.594.788.492 2.05.984 3.786 1.476.316 0 .631.164 1.105.328.157 0 .315 0 .63.164.316 0 .474 0 .474.164l2.682.82c8.047 2.625 13.254 6.398 15.936 11.483 1.104 1.805 2.682 1.149 3.787.165a170.044 170.044 0 0 0 6.942-8.203c8.993-11.811 8.204-28.38-1.262-39.37 0-.329-.316-.657-.79-1.149-3.155-3.117-.946-5.905 2.84-5.25 3.63.657 5.996 1.477 7.574-.655.947-2.625-4.102-6.07-8.362-9.68zM172.894 239.602c-1.42 1.149-3.155 1.64-4.575 1.64-3.787 0-6.47-2.788-6.47-6.725 0-4.43 2.683-6.726 5.996-6.726 2.052 0 3.156.656 4.26 1.312l2.21-3.773c-1.263-1.312-3.63-2.296-6.47-2.296-7.257 0-11.044 5.085-11.044 11.483 0 6.89 4.576 11.483 11.202 11.483 2.84 0 5.68-1.148 6.942-2.625l-2.05-3.773zm11.834 5.906h4.89l1.736-4.593h8.363l1.735 4.593h5.207l-8.836-21.982h-4.26l-8.835 21.982zm10.886-15.584l2.367 6.233h-4.733l2.366-6.233zm23.194 15.584h4.89v-7.874h6.47v-4.758h-6.47v-4.593h7.416v-4.757h-12.306v21.982zm25.56 0h12.937v-4.757h-8.046v-3.938h6.784v-4.757h-6.784v-3.937h7.73v-4.757h-12.621v22.146z"/>
    </g>
</svg>
