<svg xmlns="http://www.w3.org/2000/svg" xmlns:xlink="http://www.w3.org/1999/xlink" width="211" height="145" viewBox="0 0 211 145"><defs><path id="7g0ua" d="M247.36 2107.505v-22.147h12.622v4.758h-7.731v3.937h6.784v4.757h-6.784v3.937h8.047v4.757zm-25.56-21.983h12.306v4.758h-7.415v4.593h6.469v4.757h-6.47v7.875h-4.89zm-25.56 12.632h4.733l-2.367-6.234zm.315-12.632h4.26l8.836 21.983h-5.207l-1.735-4.594h-8.363l-1.735 4.593h-4.891zm-18.617 19.85c-1.263 1.476-4.103 2.625-6.943 2.625-6.626 0-11.202-4.594-11.202-11.484 0-6.397 3.787-11.483 11.045-11.483 2.84 0 5.206.985 6.468 2.297l-2.208 3.773c-1.105-.656-2.21-1.312-4.26-1.312-3.314 0-5.996 2.296-5.996 6.725 0 3.938 2.682 6.726 6.469 6.726 1.42 0 3.155-.492 4.575-1.64zm128.273-136.485c4.26 3.609 9.309 7.053 8.362 9.678-1.578 2.133-3.944 1.313-7.573.656-3.787-.656-5.996 2.133-2.84 5.25.473.492.789.82.789 1.148 9.466 10.991 10.255 27.56 1.262 39.37a170.05 170.05 0 0 1-6.942 8.203c-1.105.984-2.683 1.64-3.787-.164-2.682-5.085-7.889-8.858-15.936-11.483l-2.682-.82c0-.164-.158-.164-.473-.164-.316-.164-.473-.164-.631-.164-.474-.164-.79-.328-1.105-.328-1.735-.493-2.997-.985-3.786-1.477-2.051-.984-3.156-2.625-3.156-4.593 0-3.773 2.525-5.742 7.258-5.742.789 0 1.893 0 2.998.328l2.84.82c1.262.493 2.209.82 2.84.82.946.165 1.893.329 2.682.329 4.418 0 6.627-2.133 6.627-6.234 0-2.624-1.736-4.921-4.892-6.726-3.313-1.968-7.573-2.952-12.78-2.952-6.942 0-12.622 1.968-17.04 5.905-4.26 3.773-6.31 8.695-6.31 14.6 0 4.922 1.42 8.695 4.417 11.483 2.84 2.79 7.416 4.922 13.885 6.89 3.944 1.149 6.784 2.297 8.204 3.281 2.051 1.313 2.998 3.281 2.998 5.578 0 4.593-2.367 6.89-7.258 6.89-1.42 0-2.998-.164-4.576-.493-1.262-.164-2.682-.656-4.26-1.312l-3.786-1.148c-1.262-.328-2.367-.492-3.156-.492-4.89 0-7.258 2.132-7.258 6.561 0 2.461 1.42 4.43 4.26 6.398 1.105.984 1.42 2.789-.788 3.61-.158 0-.316.163-.316.163a126.56 126.56 0 0 1-42.916 7.546h-.473c-15.462 0-30.924-2.953-45.124-8.53h-.158c-2.367-.984-1.893-2.789-.631-3.937l.789-.82c4.575-4.101 6.784-9.35 6.784-15.585 0-9.022-5.995-15.584-17.829-19.521l-2.682-.82c0-.164-.158-.164-.473-.164-.316-.164-.474-.164-.631-.164-.474-.164-.79-.328-1.105-.328-1.735-.492-2.998-.985-3.787-1.477-2.05-.984-3.155-2.624-3.155-4.593 0-3.773 2.524-5.742 7.258-5.742.789 0 1.893 0 2.997.328l2.84.82c1.263.493 2.21.82 2.84.82.947.165 1.894.329 2.683.329 4.417 0 6.626-2.133 6.626-6.234 0-2.624-1.735-4.921-4.89-6.726-3.314-1.968-7.574-2.952-12.78-2.952-7.1 0-12.78 1.968-17.04 5.741-4.26 3.773-6.312 8.695-6.312 14.6 0 4.922 1.42 8.695 4.418 11.483 2.84 2.79 7.415 4.922 13.884 6.89 3.945 1.149 6.785 2.297 8.205 3.281 2.05 1.313 2.998 3.281 2.998 5.578 0 4.593-2.367 6.89-7.258 6.89-1.42 0-2.998-.164-4.576-.493-1.262-.164-2.682-.656-4.26-1.312l-.789-.164c-8.993-6.562-17.04-14.436-23.509-23.13-8.52-11.32-8.046-26.74 0-37.567 1.42-2.952-.946-5.577-4.733-4.92-3.313.491-6.153.491-6.784-.821-1.105-2.46 2.997-5.25 7.1-8.695 4.26-3.444 8.52-7.382 10.255-5.085 1.578 1.969 0 4.265-1.42 7.71-1.42 3.281 0 5.906 3.156 4.758 12.622-8.203 29.346-5.25 38.655 7.217 4.734 6.398 11.045 11.484 18.46 15.257 5.207 2.624 4.576 7.054 2.84 10.17 0 .164-.157.164-.157.329-2.367 4.757-3.472 10.334-3.472 16.568 0 10.17 2.84 18.373 8.678 24.443 5.838 6.233 13.57 9.35 23.036 9.35 9.466 0 17.198-3.117 23.035-9.35 5.838-6.234 8.678-14.272 8.678-24.443 0-7.382-1.578-13.78-4.733-19.03 0-.163-.158-.163-.158-.327-2.209-3.773.473-6.726 2.209-7.546 7.415-3.61 13.727-8.695 18.46-14.928 8.047-10.663 21.615-14.272 33.133-9.843.316 0 .631 0 .947.164 3.471 1.148 5.68-1.969 3.944-5.906-1.42-3.117-2.05-6.233-.157-7.71 2.05-1.64 5.048 1.805 8.993 4.922zm-105.711 74.64c-2.84-3.609-4.418-8.366-4.418-14.436 0-6.234 1.42-11.155 4.418-14.764 2.84-3.609 6.626-5.25 11.36-5.25 4.733 0 8.52 1.805 11.36 5.25 2.84 3.609 4.418 8.53 4.418 14.764 0 6.07-1.42 10.827-4.418 14.436-2.84 3.609-6.627 5.25-11.36 5.25-4.734 0-8.52-1.805-11.36-5.25z"/></defs><g><g transform="translate(-104 -1963)"><use fill="#fff" xlink:href="#7g0ua"/></g></g></svg>