<svg xmlns="http://www.w3.org/2000/svg" width="496" height="468" viewBox="0 0 496 468">
    <g fill="#FFF" fill-rule="evenodd">
        <path d="M-452-164H948v7143H-452z"/>
        <path d="M116.202 293.919c0-2.137 2.195-3.41 5.392-3.41 6.832 0 9.595 4.818 9.595 4.818l8.813-5.353s-3.625-9.507-19.395-9.507c-11.864 0-18.546 6.294-18.546 13.59 0 18.274 24.58 11.508 24.58 20.617 0 2.27-1.99 3.677-5.53 3.677-8.33 0-13.51-7.094-13.51-7.094l-7.6 6.694s4.897 10.164 21.11 10.164c13.985 0 19.24-7.285 19.24-13.852 0-17.664-24.15-12.444-24.15-20.344M174.729 304.362h-4.903v-13.855h4.41c6.037 0 8.801 3.02 8.801 7.164 0 4.48-2.977 6.69-8.308 6.69m21.323-6.69c0-11.445-8.039-16.806-20.758-16.806h-18.407v46.856h12.939v-13.786h7.244c10.094 0 18.982-5.024 18.982-16.264M244.556 290.509v-9.642h-32.9v46.852h32.9v-9.64h-19.961v-8.838h14.688v-9.43h-14.688v-9.302zM294.41 318.08h-19.963v-8.838h14.709v-9.43h-14.71v-9.302h19.964v-9.643h-32.9v46.853h32.9zM324.31 280.866h-12.933v46.855h32.894v-9.642H324.31zM371.401 317.681c-5.392 0-9.589-3.547-9.589-13.319 0-9.769 4.252-13.117 9.59-13.117 5.33 0 9.591 3.348 9.591 13.117 0 9.772-4.185 13.32-9.592 13.32m0-37.214c-13 0-23.017 8.237-23.017 23.894 0 15.666 10.087 23.751 23.017 23.751 12.933 0 23.02-8.085 23.02-23.75 0-15.658-10.01-23.895-23.02-23.895M190.163 357.988h3.84v.425c0 1.78-.912 3.24-3.374 3.24-2.236 0-4.343-1.548-4.343-5.487 0-3.909 1.858-5.579 4.273-5.579 3.303 0 3.405 3.17 3.405 3.17l2.767-.426c0-.63-.695-5.217-6.219-5.217-4.414 0-7.306 2.697-7.306 8.052 0 5.353 3.057 7.964 7.353 7.964 4.414 0 6.29-2.81 6.29-5.717v-2.542h-6.686v2.117zM216.196 355.834h-2.406v-5.294h2.65c2.107 0 3.317 1.037 3.317 2.677 0 1.706-1.53 2.617-3.56 2.617m3.56 1.325c1.383-.458 2.963-1.69 2.963-4.027 0-3.47-2.172-4.88-6.158-4.88h-5.779v15.745h3.007v-6.032h2.031c3.558 0 2.368 6.114 7.262 6.114.98 0 1.6-.124 1.6-.124v-2.114h-.674c-2.294 0-2.435-3.426-4.252-4.682M244.013 361.703c-2.297 0-4.293-1.49-4.293-5.56 0-4.116 2.025-5.554 4.293-5.554 2.26 0 4.297 1.438 4.297 5.554 0 4.07-2.01 5.56-4.297 5.56m0-13.59c-4.041 0-7.403 2.523-7.403 8.03 0 5.51 3.394 7.986 7.403 7.986 4.012 0 7.377-2.476 7.377-7.986 0-5.507-3.365-8.03-7.377-8.03M274.907 357.718c0 2.474-1.031 3.917-3.361 3.917-2.345 0-3.4-1.443-3.4-3.917v-9.468h-2.974v9.247c-.03 5.01 2.857 6.631 6.374 6.631 3.502 0 6.348-1.62 6.348-6.63v-9.248h-2.987v9.468zM297.91 356.411h-2.502v-5.871h2.412c2.459 0 3.613 1.242 3.613 3.022 0 1.863-1.195 2.849-3.522 2.849m.149-8.16h-5.656v15.746h3.004v-5.29h3.03c3.397 0 6.023-1.614 6.023-5.145 0-3.58-2.439-5.31-6.401-5.31M272.363 246.733c4.296 0 7.787-3.277 7.787-7.323 0-18.589-16.058-33.71-35.79-33.71s-35.787 15.121-35.787 33.71c0 4.046 3.488 7.323 7.787 7.323 4.297 0 7.775-3.277 7.775-7.323 0-10.51 9.083-19.056 20.225-19.056 11.151 0 20.228 8.547 20.228 19.056 0 4.046 3.478 7.323 7.775 7.323M180.504 215.263c-.486 7.105-3.065 13.885-7.464 19.61-2.52 3.282-1.72 7.859 1.761 10.239a8.05 8.05 0 0 0 4.54 1.385c2.414 0 4.8-1.054 6.321-3.033 6.108-7.978 9.707-17.394 10.375-27.265 1.96-28.802-21.318-53.748-51.894-55.603-4.232-.296-7.99 2.802-8.276 6.843-.273 4.047 2.983 7.528 7.268 7.784 22.024 1.336 38.788 19.293 37.37 40.04"/>
        <path d="M313.28 227.66c0-37.486-32.39-67.994-72.201-67.994-2.705 0-5.41.177-8.103.458-1.648-4.325-4.218-8.29-7.723-11.538-11.84-10.967-26.332-10.83-40.35-10.697-2.03.011-4.08.033-6.151.017-3.637-.006-7.107.1-10.392.21-12.998.441-18.98.38-23.944-5.717-3.637-4.475-2.629-8.185-1.715-9.985 1.524-2.995 4.757-4.905 8.476-4.993 1.471-.047 2.535.336 3.133.715-2.066 2.401-2.374 5.88-.484 8.612 2.345 3.39 7.154 4.359 10.759 2.162 5.082-3.111 7.168-8.762 5.307-14.415-1.937-5.891-8.376-11.735-18.478-11.735-.208 0-.416 0-.621.006-9.598.226-18.077 5.327-22.127 13.316-4.12 8.113-2.854 17.548 3.4 25.227 10.055 12.373 23.683 11.906 36.87 11.453 3.052-.102 6.255-.218 9.702-.193 2.165.017 4.314-.01 6.424-.025 13.715-.146 22.402.116 29.277 6.498 4.141 3.832 5.935 9.662 4.81 15.583-1.082 5.689-4.646 10.313-9.537 12.386-3.918 1.659-5.67 5.998-3.907 9.694 1.287 2.711 4.124 4.323 7.104 4.323 1.061 0 2.152-.207 3.18-.64 9.584-4.07 16.494-12.723 18.487-23.166.161-.853.229-1.7.325-2.547 2.081-.216 4.174-.351 6.278-.351 31.23 0 56.638 23.938 56.638 53.337 0 3.461-.348 6.917-1.043 10.268-.812 3.978 1.937 7.82 6.166 8.588.49.091.99.138 1.49.138 3.645 0 6.916-2.432 7.63-5.94a64.44 64.44 0 0 0 1.32-13.054"/>
        <path d="M197.12 159.86c-5.087 0-9.202 3.876-9.202 8.671 0 4.79 4.115 8.676 9.203 8.676 5.09 0 9.217-3.886 9.217-8.676 0-4.795-4.127-8.67-9.217-8.67"/>
    </g>
</svg>
