<svg xmlns="http://www.w3.org/2000/svg" xmlns:xlink="http://www.w3.org/1999/xlink" width="185" height="166" viewBox="0 0 185 166"><defs><path id="20t1a" d="M171.18 4682.19c0-1.346 1.38-2.147 3.39-2.147 4.292 0 6.029 3.035 6.029 3.035l5.537-3.373s-2.278-5.99-12.187-5.99c-7.455 0-11.654 3.966-11.654 8.563 0 11.514 15.446 7.251 15.446 12.991 0 1.43-1.25 2.317-3.476 2.317-5.233 0-8.49-4.47-8.49-4.47l-4.774 4.218s3.077 6.404 13.264 6.404c8.789 0 12.09-4.59 12.09-8.728 0-11.13-15.174-7.841-15.174-12.82"/><path id="20t1b" d="M221.356 4684.553c0-7.211-5.051-10.59-13.044-10.59h-11.567v29.525h8.13v-8.686h4.553c6.343 0 11.928-3.166 11.928-10.249m-13.406 4.216h-3.074v-8.73h2.765c3.785 0 5.518 1.903 5.518 4.514 0 2.823-1.867 4.216-5.21 4.216"/><path id="20t1c" d="M251.817 4680.042v-6.076h-20.655v29.523h20.655v-6.074h-12.532v-5.57h9.222v-5.941h-9.222v-5.862z"/><path id="20t1d" d="M283.163 4697.416h-12.545v-5.57h9.243v-5.942h-9.243v-5.861h12.545v-6.076H262.49v29.522h20.673z"/><path id="20t1e" d="M301.951 4673.966h-8.127v29.542h20.67v-6.08h-12.543z"/><path id="20t1f" d="M331.538 4673.72c-8.17 0-14.464 5.19-14.464 15.056 0 9.871 6.339 14.966 14.464 14.966 8.127 0 14.466-5.095 14.466-14.966 0-9.865-6.291-15.056-14.466-15.056m0 23.449c-3.388 0-6.026-2.235-6.026-8.393 0-6.155 2.673-8.265 6.026-8.265 3.35 0 6.028 2.11 6.028 8.265 0 6.158-2.63 8.393-6.028 8.393"/><path id="20t1g" d="M217.666 4722.562h2.418v.267c0 1.122-.574 2.043-2.124 2.043-1.409 0-2.736-.976-2.736-3.458 0-2.463 1.17-3.516 2.691-3.516 2.08 0 2.145 1.997 2.145 1.997l1.742-.268c0-.396-.437-3.287-3.916-3.287-2.78 0-4.601 1.7-4.601 5.074 0 3.372 1.925 5.018 4.63 5.018 2.78 0 3.96-1.77 3.96-3.602v-1.602h-4.209z"/><path id="20t1h" d="M236.25 4722.035c.87-.289 1.863-1.065 1.863-2.538 0-2.186-1.365-3.075-3.87-3.075h-3.631v9.921h1.89v-3.8h1.276c2.235 0 1.488 3.853 4.563 3.853.615 0 1.006-.079 1.006-.079v-1.332h-.424c-1.442 0-1.53-2.159-2.672-2.95m-2.245-.835H232.5v-3.336h1.657c1.318 0 2.074.654 2.074 1.687 0 1.075-.956 1.65-2.226 1.65"/><path id="20t1i" d="M251.488 4716.335c-2.54 0-4.652 1.59-4.652 5.06 0 3.472 2.133 5.032 4.652 5.032 2.521 0 4.635-1.56 4.635-5.032 0-3.47-2.114-5.06-4.635-5.06m0 8.546c-1.444 0-2.698-.937-2.698-3.495 0-2.587 1.273-3.49 2.698-3.49 1.42 0 2.7.903 2.7 3.49 0 2.558-1.263 3.495-2.7 3.495"/><path id="20t1j" d="M270.908 4722.392c0 1.558-.648 2.468-2.112 2.468-1.474 0-2.137-.91-2.137-2.468v-5.966h-1.869v5.827c-.018 3.157 1.796 4.178 4.006 4.178 2.2 0 3.989-1.021 3.989-4.178v-5.827h-1.877z"/><path id="20t1k" d="M285.454 4716.422H281.9v9.921h1.888v-3.332h1.904c2.134 0 3.784-1.018 3.784-3.242 0-2.256-1.532-3.347-4.022-3.347m-.101 5.142h-1.565v-3.7h1.508c1.538 0 2.26.783 2.26 1.905 0 1.174-.748 1.795-2.203 1.795"/><path id="20t1l" d="M269.31 4652.458c2.699 0 4.892-2.064 4.892-4.614 0-11.713-10.09-21.241-22.49-21.241-12.399 0-22.487 9.528-22.487 21.24 0 2.55 2.192 4.615 4.893 4.615 2.7 0 4.886-2.064 4.886-4.614 0-6.622 5.707-12.007 12.709-12.007 7.007 0 12.71 5.385 12.71 12.007 0 2.55 2.186 4.614 4.886 4.614"/><path id="20t1m" d="M211.587 4632.629c-.306 4.477-1.926 8.749-4.69 12.356-1.584 2.068-1.081 4.952 1.106 6.452.86.588 1.86.873 2.853.873 1.517 0 3.016-.665 3.972-1.912 3.838-5.027 6.1-10.96 6.52-17.18 1.231-18.148-13.396-33.867-32.61-35.036-2.659-.186-5.02 1.766-5.2 4.312-.171 2.55 1.875 4.743 4.567 4.905 13.84.842 24.373 12.157 23.482 25.23"/><path id="20t1n" d="M295.002 4640.44c0-23.62-20.35-42.844-45.362-42.844-1.7 0-3.4.112-5.092.29-1.034-2.726-2.65-5.224-4.851-7.271-7.44-6.911-16.544-6.824-25.351-6.74-1.276.006-2.563.02-3.865.01-2.285-.004-4.465.063-6.53.132-8.166.278-11.924.24-15.043-3.602-2.285-2.82-1.651-5.157-1.077-6.291.957-1.888 2.988-3.091 5.325-3.147.924-.03 1.593.212 1.968.45-1.298 1.514-1.491 3.705-.303 5.427 1.473 2.136 4.494 2.747 6.759 1.362 3.193-1.96 4.504-5.52 3.335-9.083-1.218-3.712-5.263-7.394-11.61-7.394-.13 0-.261 0-.39.004-6.03.142-11.357 3.357-13.902 8.39-2.589 5.112-1.793 11.058 2.136 15.897 6.317 7.795 14.88 7.501 23.165 7.216 1.917-.064 3.93-.137 6.095-.122 1.36.01 2.71-.006 4.036-.015 8.617-.092 14.075.073 18.395 4.094 2.601 2.415 3.728 6.088 3.021 9.82-.68 3.584-2.918 6.497-5.991 7.804-2.462 1.045-3.563 3.78-2.455 6.108.809 1.708 2.59 2.724 4.463 2.724.667 0 1.352-.13 1.998-.403 6.021-2.564 10.363-8.017 11.615-14.597.101-.538.144-1.072.205-1.606a38.192 38.192 0 0 1 3.944-.22c19.62 0 35.585 15.083 35.585 33.608 0 2.18-.22 4.359-.656 6.47-.51 2.507 1.217 4.928 3.874 5.411.308.058.622.087.935.087 2.291 0 4.346-1.532 4.795-3.743.556-2.685.829-5.463.829-8.225"/><path id="20t1o" d="M222.02 4597.719c-3.192 0-5.774 2.442-5.774 5.463 0 3.018 2.582 5.467 5.773 5.467 3.194 0 5.783-2.449 5.783-5.467 0-3.02-2.589-5.463-5.783-5.463"/></defs><g><g transform="translate(-161 -4561)"><g><g><g><use fill="#fff" xlink:href="#20t1a"/></g><g><use fill="#fff" xlink:href="#20t1b"/></g><g><use fill="#fff" xlink:href="#20t1c"/></g><g><use fill="#fff" xlink:href="#20t1d"/></g><g><use fill="#fff" xlink:href="#20t1e"/></g><g><use fill="#fff" xlink:href="#20t1f"/></g><g><use fill="#fff" xlink:href="#20t1g"/></g><g><use fill="#fff" xlink:href="#20t1h"/></g><g><use fill="#fff" xlink:href="#20t1i"/></g><g><use fill="#fff" xlink:href="#20t1j"/></g><g><use fill="#fff" xlink:href="#20t1k"/></g><g><use fill="#fff" xlink:href="#20t1l"/></g><g><use fill="#fff" xlink:href="#20t1m"/></g><g><use fill="#fff" xlink:href="#20t1n"/></g><g><use fill="#fff" xlink:href="#20t1o"/></g></g></g></g></g></svg>