<svg xmlns="http://www.w3.org/2000/svg" xmlns:xlink="http://www.w3.org/1999/xlink" width="140" height="145" viewBox="0 0 140 145"><defs><path id="w8zfa" d="M935.064 2887.872c.596-.322 1.191-.322 1.787-.322 1.638.161 2.979 1.126 3.872 3.057.894 1.93 1.043 3.7.298 5.47-.893 2.252-2.83 3.218-5.957 2.735a50.642 50.642 0 0 1-.298-5.31c0-2.09.149-4.021.298-5.63zm-.447-20.783c.596-.322 1.043-.483 1.638-.483 1.49 0 2.532.805 3.426 2.739.893 2.094 1.042 3.866.447 5.8-.894 2.416-2.681 3.544-5.511 3.383a49.042 49.042 0 0 1-.298-5.478c0-2.417 0-4.189.298-5.961zm-18.17-2.417v32.223c.149 4.672.447 7.572 1.042 9.022.596 1.61 2.085 2.739 4.17 3.222 1.639.483 5.81.644 12.362.644h2.383c14 0 21.447-4.672 22.34-13.855.15-1.45.15-2.739 0-4.028a11.559 11.559 0 0 0-1.042-3.705c-.447-1.29-1.191-2.256-2.085-3.223a9.471 9.471 0 0 0-3.723-2.094c-1.639-.645-3.426-.967-5.511-.967 2.979-.16 5.362-1.45 7.149-3.544 1.787-2.256 2.68-5.156 2.68-8.7 0-2.74-.595-4.995-1.786-6.928-1.192-1.933-2.681-3.222-4.766-4.189-2.086-.967-4.17-1.611-6.554-2.094-2.383-.323-4.914-.645-7.744-.484-2.83 0-5.362.161-7.596.323-2.234.16-4.617.483-6.851.644-2.234.161-3.872.322-4.915.322.298 1.29.447 3.545.447 7.411z"/><path id="w8zfb" d="M980.484 2879.012c-.15 2.415-.15 4.669-.15 6.923 0 2.093.15 4.347.447 6.44.15 1.771.894 2.898 2.085 3.381 1.192.644 2.383.161 3.277-1.288.745-.966 1.192-2.415 1.34-4.186v-13.202c0-1.288-.297-2.415-.893-3.704-.596-1.127-1.34-1.77-2.383-1.932-1.043-.16-1.936.483-2.68 1.933-.597 1.288-.895 3.22-1.043 5.635zm-18.618 8.382c-.148-4.51 0-8.538.596-12.244.596-3.544 1.34-6.606 2.383-9.022 1.043-2.417 2.234-4.35 3.724-5.8 1.489-1.611 2.978-2.74 4.468-3.384a12.046 12.046 0 0 1 4.766-.966c.595 0 1.042 0 1.489.16.447 0 1.192.162 2.085.484.894.161 1.638.484 2.383 1.128.745.483 1.49 1.128 2.234 1.772.745.645 1.49 1.611 2.085 2.9.596 1.29 1.043 2.578 1.49 4.19.149-2.579.595-4.673 1.489-6.284.894-1.611 2.085-2.578 3.426-3.222 1.489-.484 2.978-.645 4.617-.484 1.638.161 3.425.806 5.063 1.611v34.478c.15 1.772.447 2.9.894 3.383.447.484 1.043.967 1.936 1.128 0 1.611-.447 3.061-1.042 4.511-.596 1.45-1.49 2.578-2.532 3.545-1.043.966-2.085 1.772-3.277 2.416-1.191.645-2.383.967-3.723.967-1.192 0-2.383-.322-3.426-.805-1.042-.484-1.936-1.45-2.68-2.9-.745-1.45-1.192-3.223-1.49-5.478-1.34 3.383-3.128 5.96-5.362 7.733-2.234 1.772-4.617 2.578-7.149 2.417-2.532-.161-4.766-.967-7-2.578-2.234-1.611-4.021-4.028-5.51-7.572-1.192-3.222-1.937-7.411-1.937-12.084z"/><path id="w8zfc" d="M1022.34 2847.278c-.297-2.417.447-4.672 2.382-7.09 3.423.484 5.954.806 7.442.645 3.274-.322 6.4-1.933 9.377-4.833 1.786.967 3.126 2.094 3.721 3.706.595 1.61.744 3.06.149 4.672-.595 1.61-1.489 2.9-2.977 4.189-1.637 1.289-3.423 2.416-5.358 3.222-1.935.967-3.87 1.45-5.954 1.772-1.935.322-3.721 0-5.21-.805-1.934-1.29-3.274-3.062-3.572-5.478zm-11.02 12.889c.297-.161.744-.484 1.34-.806.595-.322 1.34-.805 2.531-1.289 1.043-.483 2.235-.805 3.277-1.128 1.192-.322 2.234-.322 3.575 0 1.191.162 2.383.645 3.276 1.45 1.043.806 1.787 2.095 2.532 3.867.745 1.772 1.192 4.028 1.34 6.767 0 14.178 0 22.072.15 23.36.148 1.773.893 2.9 1.936 3.384 1.191.645 2.234.161 3.276-1.289.745-.966 1.192-2.416 1.34-4.189l-.148-16.433v-.967-2.738-2.578c0-1.128.149-1.934.298-2.417.149-.483.297-1.289.446-2.094.15-.806.447-1.45.745-1.934.298-.483.596-.966 1.043-1.45.446-.483.893-.966 1.489-1.127.596-.323 1.191-.484 2.085-.645.745-.161 1.638-.322 2.68-.322 1.043 0 1.788.161 2.682.322.744.161 1.49.322 2.085.645.596.322 1.042.644 1.49 1.127.446.484.744.967 1.042 1.45.298.484.447.967.744 1.773.15.805.298 1.288.447 1.933.15.483.15 1.289.15 2.094V2893.194c0 1.773.148 2.9.595 3.384a3.849 3.849 0 0 0 2.085 1.128c0 1.61-.447 3.06-1.042 4.51-.596 1.45-1.49 2.578-2.532 3.545-1.043.967-2.085 1.772-3.277 2.417-1.191.644-2.383.966-3.723.966-1.192 0-2.383-.322-3.426-.805-1.042-.483-1.936-1.45-2.68-2.9-.745-1.45-1.192-3.222-1.49-5.478-.745 1.933-1.638 3.545-2.681 4.833-1.043 1.45-2.085 2.417-3.277 3.223-1.191.805-2.383 1.289-3.723 1.772-1.34.322-2.68.322-3.872.161-1.34-.322-2.532-.806-3.724-1.45-1.191-.644-2.383-1.611-3.425-2.9a18.318 18.318 0 0 1-2.681-4.511c-.745-1.611-1.34-3.706-1.787-5.961a38.846 38.846 0 0 1-.745-7.411v-18.528-1.933-1.612-1.288-1.29c0-.322 0-.644-.149-.966 0-.322 0-.806-.149-.967 0-.322-.149-.644-.149-.966z"/><path id="w8zfd" d="M916 2925.094c6.255-1.61 11.021-2.416 14.298-2.577 7.745-.484 12.66 1.61 14.893 5.96.447 1.129.894 2.74 1.49 5.156.447 2.417.893 4.995 1.191 7.734.298 2.739.596 5.316.894 7.894.298 2.578.447 4.672.596 6.283l.149 2.578c0-1.128.298-4.833 1.042-10.633.745-6.283 1.638-11.278 2.532-14.822.894-3.545 2.234-5.961 3.872-7.411 1.639-1.45 4.469-2.256 8.34-2.74 2.533-.16 4.767 0 6.852.967 2.085.806 3.872 2.256 5.362 4.19 1.34 1.933 2.085 4.35 1.936 7.088l.447 24.167c.149 3.222.297 5.639.744 6.928.447 1.288 1.192 2.094 2.234 2.416 0 3.061-1.191 5.8-3.723 8.217-2.383 2.417-5.064 3.544-7.745 3.544-3.723 0-6.404-1.933-8.042-5.639-1.043-2.577-1.49-5.8-1.49-9.666l1.937-25.134c-1.192 2.578-2.383 6.606-3.724 12.406-1.191 5.8-2.085 10.956-2.383 15.628-.298 4.028-1.191 7.089-2.383 9.183-1.191 2.095-3.425 3.061-6.404 3.222-4.32.161-7.447-1.45-9.085-4.833-.745-1.611-1.49-4.994-2.085-10.15-.745-5.156-1.49-10.311-2.234-15.306-.894-4.994-1.788-8.216-2.98-9.827.448 2.9.895 7.733 1.341 14.339.447 6.605.596 11.6.745 14.983 0 1.772-.149 3.222-.298 4.35-.149 1.128-.596 2.255-1.191 3.383-.596 1.128-1.49 1.772-2.681 2.256-1.192.483-2.681.805-4.617.805-3.128 0-5.362-.966-6.851-2.9-1.49-1.933-2.234-4.672-2.383-8.216-.15-11.44-.298-19.817-.15-24.973.15-5.155.15-9.022.15-11.438 0-2.417-.15-4.995-.596-7.412z"/><path id="w8zfe" d="M986.149 2966.339c0-2.9 1.34-4.995 3.872-6.606.745-.483 1.639-.805 2.681-1.127.894.805 1.936 1.772 3.128 2.577 1.191.806 2.383 1.773 3.872 2.74 1.49.966 2.83 1.61 4.17 1.933 1.34.322 2.532.483 3.724.322 1.191-.161 2.085-.806 2.68-1.934.745-.966 1.043-2.577 1.043-4.672 0-.483 0-1.61-.149-3.222-.893.161-2.532.322-5.064.322s-4.02 0-4.468-.16c-1.042-.323-1.787-1.29-2.234-2.9a9.32 9.32 0 0 1-.149-4.512c.298-1.45.745-2.256 1.34-2.256 1.192-.16 3.128-.322 5.81-.322 2.531 0 4.17 0 4.616-.16v-.484-2.095c0-.483 0-1.289-.149-2.255 0-.967-.149-1.772-.446-2.417-.15-.644-.447-1.289-.745-1.933a3.72 3.72 0 0 0-1.192-1.45 3.87 3.87 0 0 0-1.936-.484c-1.787 0-3.574.806-5.213 2.417-1.787 1.611-2.83 3.222-3.425 4.672-1.34.323-2.979.161-4.915-.644-1.936-.806-3.574-1.933-4.915-3.545-1.34-1.45-1.787-3.06-1.49-4.51 1.043-4.19 3.724-7.573 8.043-9.828 4.617-2.578 9.681-3.384 15.34-2.578 6.405.966 11.618 3.866 15.49 8.7 4.32 5.478 6.255 12.728 6.106 21.75-.148 3.544-.446 6.766-1.191 9.666-.745 2.9-1.638 5.317-2.68 7.25a21.52 21.52 0 0 1-3.873 5.156c-1.49 1.45-2.83 2.739-4.32 3.544-1.34.806-2.83 1.45-4.467 1.934-1.639.483-2.98.805-4.17.966-1.192.162-2.235.162-3.426.162-7.298 0-12.958-1.934-16.979-5.8-2.83-2.095-4.32-5.156-4.32-8.217z"/><path id="w8zff" d="M1040.213 2977.133c-.596-1.127-.894-2.416-.894-3.705 0-1.29.15-2.578.596-3.867.447-1.128 1.34-2.255 2.383-3.061 1.191-.806 2.532-1.289 4.17-1.45 1.638 0 3.128.161 4.32.644 1.19.484 2.233 1.29 2.829 2.256.596.967 1.043 1.933 1.34 3.061a6.517 6.517 0 0 1 0 3.383c-.297 1.128-.744 2.256-1.34 3.223-.596.966-1.49 1.772-2.68 2.416-1.043.484-2.384.967-3.724.967-1.639 0-2.979-.322-4.17-.967-1.34-.805-2.234-1.772-2.83-2.9zm-2.383-55.26c4.021-1.612 6.85-2.417 8.787-2.417.894 0 1.936.16 2.83.483.893.322 1.787.805 2.68 1.45.894.644 1.49 1.45 1.937 2.739.447 1.128.745 2.578.745 4.028 0 2.738-.298 7.088-.894 13.21-.596 5.962-.745 11.117-.745 15.467-.149.484-.447.806-.596 1.128-.148.322-.595.645-1.042 1.289-.447.644-1.192.967-2.085 1.289-.894.322-1.936.483-3.277.483-1.191 0-2.085-.16-2.83-.644-.744-.484-1.34-.806-1.787-1.29-.447-.482-.744-1.288-1.042-2.577-.298-1.289-.447-2.255-.447-2.9 0-.644-.15-1.933-.15-3.867v-.805c-.148-4.028-.595-9.183-1.042-15.306-.595-6.444-.893-10.31-1.042-11.76z"/></defs><g><g transform="translate(-916 -2836)"><g><g><use fill="#ed1c24" xlink:href="#w8zfa"/></g><g><use fill="#ed1c24" xlink:href="#w8zfb"/></g><g><use fill="#ed1c24" xlink:href="#w8zfc"/></g><g><use fill="#ed1c24" xlink:href="#w8zfd"/></g><g><use fill="#ed1c24" xlink:href="#w8zfe"/></g><g><use fill="#ed1c24" xlink:href="#w8zff"/></g></g></g></g></svg>